<svg width="168" height="73" viewBox="0 0 168 73" fill="none" xmlns="http://www.w3.org/2000/svg">
<path fill-rule="evenodd" clip-rule="evenodd" d="M55.3534 0.969805C49.8007 2.08811 49.6777 2.13584 48.509 3.62149C47.1645 5.33071 45.579 8.54379 45.4575 9.80587C45.2678 11.7755 47.0259 12.4537 50.4791 11.7427C52.9755 11.2287 54.7626 10.1802 56.822 8.02103C58.3146 6.45603 59.6205 4.55813 60.6938 2.39371C61.603 0.559949 61.6308 0.0413651 60.8218 0.000349692C60.534 -0.0141176 58.0733 0.422137 55.3534 0.969805ZM117.328 14.2652C114.902 14.981 111.692 15.9216 110.194 16.3555L107.47 17.1446L105.946 19.7717C105.108 21.2167 104.197 22.7111 103.922 23.0926C103.276 23.9887 102.801 25.0651 102.918 25.3691C103.04 25.6864 103.599 25.8129 104.35 25.693L104.962 25.5955L103.717 26.9801C101.443 29.508 95.3024 35.5191 93.6867 36.7988C91.2808 38.7041 89.6164 39.6068 88.8591 39.4172C88.3892 39.2995 87.5799 38.16 87.5799 37.6161C87.5799 35.6964 89.6757 31.2868 93.3987 25.3731C94.2993 23.9425 94.9898 22.7712 94.9332 22.7706C94.8764 22.77 92.2883 23.183 89.1817 23.6885L83.5333 24.6075L82.7597 26.1133C80.4066 30.6937 77.1675 34.2236 74.0787 35.574C72.9931 36.0486 71.186 36.3836 70.316 36.2714C68.725 36.0665 68.1339 35.4502 68.1269 33.9891C68.1169 31.9036 69.4159 28.8624 72.2062 24.4391C72.8163 23.4719 73.0032 23.0713 72.8199 23.1227C72.675 23.1633 70.3765 23.4846 67.7121 23.8367L62.8676 24.477L61.8819 25.3768C59.2898 27.7435 55.8302 30.2286 51.5398 32.8063C48.4437 34.6666 43.5139 37.339 43.4139 37.2113C43.3937 37.1855 45.3177 33.8813 47.6894 29.8685C50.0611 25.8556 51.9786 22.5496 51.9506 22.5217C51.9079 22.479 42.2603 24.4995 39.9954 25.0256L39.275 25.1929L36.4215 29.4634C30.3024 38.6215 27.4192 42.7266 26.6657 43.3541C23.1677 46.2663 18.6813 50.2489 17.3198 51.6504C14.0158 55.0517 8.80812 61.038 3.21403 67.8652C0.297686 71.4244 -0.0676597 71.9506 0.00887756 72.4822C0.124879 73.2873 1.72543 73.1581 5.20295 72.0628C6.33994 71.7047 9.62821 70.7731 12.51 69.9926C17.9832 68.5106 19.0076 68.1262 20.9088 66.8412C21.4432 66.4801 22.1878 65.8968 22.5635 65.5452C22.9391 65.1935 26.6169 60.7111 30.7362 55.5841L38.2258 46.2625L39.5562 45.6997C41.242 44.9865 46.4216 42.203 52.3595 38.8191C54.8992 37.3717 57 36.2101 57.0278 36.2378C57.0556 36.2654 56.875 37.0893 56.6264 38.0686C56.091 40.179 55.9022 42.6685 56.1777 43.9833C56.4373 45.222 57.1478 46.5342 57.9316 47.2227C58.9671 48.132 59.9867 48.4639 61.9821 48.5413C65.5944 48.6813 69.6476 47.5611 74.832 44.9901L77.4063 43.7134L77.5697 44.4986C77.9419 46.2872 78.9834 47.6971 80.3917 48.3186C80.9874 48.5815 81.2696 48.6058 82.7911 48.5261C86.2732 48.3432 88.8275 47.2179 93.1857 43.9468C97.5901 40.641 103.469 34.6703 108.255 28.6436L109.928 26.536L110.825 26.4038C111.318 26.3312 111.741 26.3118 111.763 26.3609C111.786 26.4098 110.623 28.3841 109.179 30.7479C105.07 37.4726 104.183 39.1948 103.402 41.9527C102.972 43.4762 102.938 45.3722 103.325 46.3716C103.676 47.2804 104.713 48.2029 105.717 48.5004C109.254 49.5485 117.149 46.9109 124.375 42.2671L125.218 41.7254L125.324 42.5717C125.659 45.2508 127.057 47.3761 129.02 48.1926C130.025 48.6106 131.21 48.7264 132.933 48.5748C136.292 48.2791 140.095 46.8219 144.139 44.28C144.949 43.7708 145.633 43.3541 145.659 43.3541C145.684 43.3541 145.778 43.6912 145.866 44.1031C146.242 45.8521 147.511 47.3615 149.138 47.9954C150.303 48.4491 152.032 48.5383 153.082 48.1987C155.285 47.4862 157.431 45.5185 159.191 42.5966C159.598 41.9206 159.932 41.322 159.932 41.2662C159.932 41.2104 159.757 41.0853 159.543 40.988C159.202 40.8331 159.065 40.8665 158.422 41.2607C157.488 41.8341 156.075 42.3101 155.306 42.3101C154.164 42.3101 153.995 41.4073 154.718 39.178C154.891 38.6448 156.712 34.6967 158.766 30.4044C160.82 26.1123 162.459 22.5594 162.409 22.5093C162.359 22.4593 160.183 22.5335 157.574 22.6743C154.965 22.8149 151.351 22.9975 149.542 23.0798C142.931 23.3809 138.787 24.3261 134.452 26.5215C131.591 27.9706 129.587 29.5556 127.441 32.0652C122.911 37.3651 118.428 40.5349 116.139 40.0569C115.459 39.9149 115.194 39.5419 115.283 38.8518C115.328 38.5017 116.821 35.658 119.394 31.0216C121.616 27.0174 123.477 23.5685 123.53 23.3574C123.736 22.5324 123.499 22.5327 119.182 23.3629C115.262 24.1165 114.634 24.1878 114.537 23.8904C114.51 23.8084 116.23 21.5679 118.36 18.9114C120.489 16.255 122.314 13.9272 122.416 13.7386C122.658 13.2868 122.504 12.9236 122.079 12.946C121.891 12.9559 119.753 13.5496 117.328 14.2652ZM147.04 28.9894C147.405 29.2631 147.449 29.392 147.449 30.1746C147.449 30.9391 147.363 31.2064 146.777 32.2441C145.865 33.8589 143.761 35.9689 141.725 37.3093C139.924 38.4952 139.428 38.6886 137.855 38.8178C136.424 38.9355 135.533 38.7217 134.926 38.1154C134.524 37.7145 134.489 37.6016 134.549 36.8971C134.691 35.2295 136.192 32.9966 138.142 31.5537C141.344 29.1856 145.649 27.945 147.04 28.9894ZM163.49 42.3162C162.311 42.9374 161.659 44.4205 162.002 45.7005C162.595 47.9126 165.143 48.7733 166.876 47.3475C168.585 45.9418 168.299 43.3041 166.328 42.2956C165.585 41.9154 164.232 41.9251 163.49 42.3162ZM166.221 42.8379C167.43 43.4613 167.808 45.2906 166.968 46.4472C165.87 47.9599 163.587 47.773 162.77 46.1035C162.253 45.0472 162.456 43.9798 163.33 43.1605C164.097 42.4412 165.211 42.3168 166.221 42.8379ZM163.669 44.9947C163.669 46.4862 163.706 46.7845 163.893 46.7845C164.062 46.7845 164.117 46.6022 164.117 46.0387V45.293H164.785C165.533 45.293 165.762 45.5349 165.762 46.3272C165.762 46.6316 165.836 46.7845 165.983 46.7845C166.16 46.7845 166.186 46.6438 166.112 46.076C166.061 45.6863 165.955 45.2866 165.877 45.1875C165.784 45.0688 165.816 44.8924 165.973 44.6696C166.297 44.2083 166.272 43.999 165.843 43.5711C165.534 43.2631 165.333 43.2049 164.572 43.2049H163.669V44.9947ZM165.671 43.988C165.95 44.4321 165.605 44.7646 164.812 44.8165L164.117 44.862V44.249V43.636L164.812 43.6815C165.275 43.7117 165.561 43.8139 165.671 43.988Z" fill="white"/>
</svg>
