<svg width="24" height="24" viewBox="0 0 24 24" fill="none" xmlns="http://www.w3.org/2000/svg">
<path d="M8.72888 13.9444H2.92976C2.39905 13.9444 1.96484 14.3819 1.96484 14.9166C1.96484 15.4513 2.39905 15.8888 2.92976 15.8888H8.72888V17.6291C8.72888 18.0666 9.24993 18.2805 9.54905 17.9694L12.2315 15.2569C12.4148 15.0625 12.4148 14.7611 12.2315 14.5666L9.54905 11.8541C9.24993 11.543 8.72888 11.7666 8.72888 12.1944V13.9444ZM14.4991 11.7958V10.0555H20.2982C20.8289 10.0555 21.2631 9.618 21.2631 9.08328C21.2631 8.54856 20.8289 8.11106 20.2982 8.11106H14.4991V6.37078C14.4991 5.93328 13.978 5.71939 13.6789 6.0305L10.9964 8.743C10.8131 8.93745 10.8131 9.23884 10.9964 9.43328L13.6789 12.1458C13.7469 12.213 13.8331 12.2584 13.9267 12.2762C14.0203 12.2941 14.1171 12.2837 14.2048 12.2463C14.2925 12.2088 14.3672 12.1461 14.4196 12.0659C14.472 11.9857 14.4996 11.8918 14.4991 11.7958Z" fill="black"/>
</svg>
