<svg width="33" height="34" viewBox="0 0 33 34" fill="none" xmlns="http://www.w3.org/2000/svg">
<path d="M12.375 7.37495C12.0103 7.37495 11.6606 7.51982 11.4027 7.77768C11.1449 8.03554 11 8.38528 11 8.74995C11 9.11462 11.1449 9.46436 11.4027 9.72222C11.6606 9.98008 12.0103 10.125 12.375 10.125C12.7397 10.125 13.0894 9.98008 13.3473 9.72222C13.6051 9.46436 13.75 9.11462 13.75 8.74995C13.75 8.38528 13.6051 8.03554 13.3473 7.77768C13.0894 7.51982 12.7397 7.37495 12.375 7.37495ZM8.48375 7.37495C8.76783 6.56984 9.29464 5.87267 9.99157 5.37954C10.6885 4.8864 11.5212 4.62158 12.375 4.62158C13.2288 4.62158 14.0615 4.8864 14.7584 5.37954C15.4554 5.87267 15.9822 6.56984 16.2662 7.37495H26.125C26.4897 7.37495 26.8394 7.51982 27.0973 7.77768C27.3551 8.03554 27.5 8.38528 27.5 8.74995C27.5 9.11462 27.3551 9.46436 27.0973 9.72222C26.8394 9.98008 26.4897 10.125 26.125 10.125H16.2662C15.9822 10.9301 15.4554 11.6272 14.7584 12.1204C14.0615 12.6135 13.2288 12.8783 12.375 12.8783C11.5212 12.8783 10.6885 12.6135 9.99157 12.1204C9.29464 11.6272 8.76783 10.9301 8.48375 10.125H6.875C6.51033 10.125 6.16059 9.98008 5.90273 9.72222C5.64487 9.46436 5.5 9.11462 5.5 8.74995C5.5 8.38528 5.64487 8.03554 5.90273 7.77768C6.16059 7.51982 6.51033 7.37495 6.875 7.37495H8.48375ZM20.625 15.625C20.2603 15.625 19.9106 15.7698 19.6527 16.0277C19.3949 16.2855 19.25 16.6353 19.25 17C19.25 17.3646 19.3949 17.7144 19.6527 17.9722C19.9106 18.2301 20.2603 18.375 20.625 18.375C20.9897 18.375 21.3394 18.2301 21.5973 17.9722C21.8551 17.7144 22 17.3646 22 17C22 16.6353 21.8551 16.2855 21.5973 16.0277C21.3394 15.7698 20.9897 15.625 20.625 15.625ZM16.7338 15.625C17.0178 14.8198 17.5446 14.1227 18.2416 13.6295C18.9385 13.1364 19.7712 12.8716 20.625 12.8716C21.4788 12.8716 22.3115 13.1364 23.0084 13.6295C23.7054 14.1227 24.2322 14.8198 24.5163 15.625H26.125C26.4897 15.625 26.8394 15.7698 27.0973 16.0277C27.3551 16.2855 27.5 16.6353 27.5 17C27.5 17.3646 27.3551 17.7144 27.0973 17.9722C26.8394 18.2301 26.4897 18.375 26.125 18.375H24.5163C24.2322 19.1801 23.7054 19.8772 23.0084 20.3704C22.3115 20.8635 21.4788 21.1283 20.625 21.1283C19.7712 21.1283 18.9385 20.8635 18.2416 20.3704C17.5446 19.8772 17.0178 19.1801 16.7338 18.375H6.875C6.51033 18.375 6.16059 18.2301 5.90273 17.9722C5.64487 17.7144 5.5 17.3646 5.5 17C5.5 16.6353 5.64487 16.2855 5.90273 16.0277C6.16059 15.7698 6.51033 15.625 6.875 15.625H16.7338ZM12.375 23.875C12.0103 23.875 11.6606 24.0198 11.4027 24.2777C11.1449 24.5355 11 24.8853 11 25.25C11 25.6146 11.1449 25.9644 11.4027 26.2222C11.6606 26.4801 12.0103 26.625 12.375 26.625C12.7397 26.625 13.0894 26.4801 13.3473 26.2222C13.6051 25.9644 13.75 25.6146 13.75 25.25C13.75 24.8853 13.6051 24.5355 13.3473 24.2777C13.0894 24.0198 12.7397 23.875 12.375 23.875ZM8.48375 23.875C8.76783 23.0698 9.29464 22.3727 9.99157 21.8795C10.6885 21.3864 11.5212 21.1216 12.375 21.1216C13.2288 21.1216 14.0615 21.3864 14.7584 21.8795C15.4554 22.3727 15.9822 23.0698 16.2662 23.875H26.125C26.4897 23.875 26.8394 24.0198 27.0973 24.2777C27.3551 24.5355 27.5 24.8853 27.5 25.25C27.5 25.6146 27.3551 25.9644 27.0973 26.2222C26.8394 26.4801 26.4897 26.625 26.125 26.625H16.2662C15.9822 27.4301 15.4554 28.1272 14.7584 28.6204C14.0615 29.1135 13.2288 29.3783 12.375 29.3783C11.5212 29.3783 10.6885 29.1135 9.99157 28.6204C9.29464 28.1272 8.76783 27.4301 8.48375 26.625H6.875C6.51033 26.625 6.16059 26.4801 5.90273 26.2222C5.64487 25.9644 5.5 25.6146 5.5 25.25C5.5 24.8853 5.64487 24.5355 5.90273 24.2777C6.16059 24.0198 6.51033 23.875 6.875 23.875H8.48375Z" fill="#858791"/>
</svg>
