<svg width="10" height="6" viewBox="0 0 10 6" fill="none" xmlns="http://www.w3.org/2000/svg">
<path fill-rule="evenodd" clip-rule="evenodd" d="M9.76568 0.716007C9.73085 0.681085 9.68947 0.653378 9.64391 0.634473C9.59835 0.615568 9.54951 0.605837 9.50018 0.605837C9.45086 0.605837 9.40202 0.615568 9.35646 0.634473C9.3109 0.653378 9.26952 0.681085 9.23468 0.716007L5.00018 4.95126L0.765684 0.716007C0.69527 0.645592 0.599766 0.606034 0.500184 0.606034C0.400602 0.606034 0.305099 0.645592 0.234684 0.716007C0.164269 0.786422 0.124711 0.881925 0.124711 0.981507C0.124711 1.08109 0.164269 1.17659 0.234684 1.24701L4.73468 5.74701C4.76952 5.78193 4.8109 5.80964 4.85646 5.82854C4.90202 5.84745 4.95086 5.85718 5.00018 5.85718C5.04951 5.85718 5.09835 5.84745 5.14391 5.82854C5.18947 5.80964 5.23085 5.78193 5.26568 5.74701L9.76568 1.24701C9.80061 1.21217 9.82831 1.17079 9.84722 1.12523C9.86612 1.07967 9.87585 1.03083 9.87585 0.981507C9.87585 0.932182 9.86612 0.883341 9.84722 0.837782C9.82831 0.792223 9.80061 0.750841 9.76568 0.716007Z" fill="white"/>
</svg>
